<svg width="23" height="20" viewBox="0 0 23 20" fill="none" xmlns="http://www.w3.org/2000/svg">
<path d="M7.75635 7C7.49113 7 7.23678 7.10536 7.04924 7.29289C6.8617 7.48043 6.75635 7.73478 6.75635 8C6.75635 8.26522 6.8617 8.51957 7.04924 8.70711C7.23678 8.89464 7.49113 9 7.75635 9C8.02156 9 8.27592 8.89464 8.46345 8.70711C8.65099 8.51957 8.75635 8.26522 8.75635 8C8.75635 7.73478 8.65099 7.48043 8.46345 7.29289C8.27592 7.10536 8.02156 7 7.75635 7ZM11.7563 7C11.4911 7 11.2368 7.10536 11.0492 7.29289C10.8617 7.48043 10.7563 7.73478 10.7563 8C10.7563 8.26522 10.8617 8.51957 11.0492 8.70711C11.2368 8.89464 11.4911 9 11.7563 9C12.0216 9 12.2759 8.89464 12.4635 8.70711C12.651 8.51957 12.7563 8.26522 12.7563 8C12.7563 7.73478 12.651 7.48043 12.4635 7.29289C12.2759 7.10536 12.0216 7 11.7563 7ZM14.7563 8C14.7563 7.73478 14.8617 7.48043 15.0492 7.29289C15.2368 7.10536 15.4911 7 15.7563 7C16.0216 7 16.2759 7.10536 16.4635 7.29289C16.651 7.48043 16.7563 7.73478 16.7563 8C16.7563 8.26522 16.651 8.51957 16.4635 8.70711C16.2759 8.89464 16.0216 9 15.7563 9C15.4911 9 15.2368 8.89464 15.0492 8.70711C14.8617 8.51957 14.7563 8.26522 14.7563 8Z" fill="white"/>
<path fill-rule="evenodd" clip-rule="evenodd" d="M20.7563 16C21.2868 16 21.7955 15.7893 22.1706 15.4142C22.5456 15.0391 22.7563 14.5304 22.7563 14V2C22.7563 1.46957 22.5456 0.960859 22.1706 0.585786C21.7955 0.210714 21.2868 0 20.7563 0H2.75635C2.22591 0 1.71721 0.210714 1.34213 0.585786C0.967061 0.960859 0.756348 1.46957 0.756348 2V14C0.756348 14.5304 0.967061 15.0391 1.34213 15.4142C1.71721 15.7893 2.22591 16 2.75635 16H11.7563L13.2033 18.894C13.3695 19.2265 13.625 19.5061 13.9411 19.7014C14.2573 19.8968 14.6217 20.0002 14.9933 20H17.7563V16H20.7563ZM20.7563 2H2.75635V14H12.9923L14.9923 18H15.7563V14H20.7563V2Z" fill="white"/>
</svg>
