<svg width="32" height="32" viewBox="0 0 32 32" fill="none" xmlns="http://www.w3.org/2000/svg">
<path fill-rule="evenodd" clip-rule="evenodd" d="M13.0002 6C11.8816 6.00005 10.7793 6.26817 9.78565 6.7819C8.79199 7.29563 7.93593 8.04001 7.28917 8.95268C6.6424 9.86535 6.22378 10.9197 6.06837 12.0275C5.91297 13.1352 6.0253 14.2641 6.39596 15.3195C6.76661 16.3749 7.3848 17.3261 8.19874 18.0934C9.01267 18.8608 9.99864 19.4219 11.074 19.7297C12.1495 20.0375 13.283 20.0832 14.3797 19.8628C15.4763 19.6424 16.5042 19.1624 17.3772 18.463C18.7312 20.093 20.8122 22.313 24.0002 25.5L25.5002 24C22.3222 20.822 19.8202 18.45 18.4742 17.364C19.2957 16.3337 19.8097 15.0925 19.9571 13.7831C20.1045 12.4737 19.8794 11.1493 19.3075 9.96219C18.7357 8.77506 17.8404 7.77345 16.7246 7.07252C15.6088 6.3716 14.3179 5.99984 13.0002 6ZM8.0002 13C8.0002 11.6739 8.52699 10.4021 9.46467 9.46447C10.4024 8.52678 11.6741 8 13.0002 8C14.3263 8 15.5981 8.52678 16.5357 9.46447C17.4734 10.4021 18.0002 11.6739 18.0002 13C18.0002 14.3261 17.4734 15.5979 16.5357 16.5355C15.5981 17.4732 14.3263 18 13.0002 18C11.6741 18 10.4024 17.4732 9.46467 16.5355C8.52699 15.5979 8.0002 14.3261 8.0002 13Z" fill="#241C15"/>
</svg>
